<svg xmlns="http://www.w3.org/2000/svg" version="1.1" xmlns:xlink="http://www.w3.org/1999/xlink" xmlns:svgjs="http://svgjs.dev/svgjs" width="1000" height="113" viewBox="0 0 1000 113"><g transform="matrix(1,0,0,1,-0.6060606060606233,-0.5453708920188092)"><svg viewBox="0 0 396 45" data-background-color="#ffffff" preserveAspectRatio="xMidYMid meet" height="113" width="1000" xmlns="http://www.w3.org/2000/svg" xmlns:xlink="http://www.w3.org/1999/xlink"><g id="tight-bounds" transform="matrix(1,0,0,1,0.2400000000000091,0.21718309859156193)"><svg viewBox="0 0 395.52 44.5656338028169" height="44.5656338028169" width="395.52"><g><svg viewBox="0 0 395.52 44.5656338028169" height="44.5656338028169" width="395.52"><g><svg viewBox="0 0 395.52 44.5656338028169" height="44.5656338028169" width="395.52"><g id="textblocktransform"><svg viewBox="0 0 395.52 44.5656338028169" height="44.5656338028169" width="395.52" id="textblock"><g><svg viewBox="0 0 395.52 44.5656338028169" height="44.5656338028169" width="395.52"><g transform="matrix(1,0,0,1,0,0)"><svg width="395.52" viewBox="0 -50 443.73 43.75" height="44.5656338028169" data-palette-color="#ffffff"><path d="M37.5-6.25L12.5-6.25 12.5-12.5 6.25-12.5 6.25-18.75 0-18.75 0-37.5 6.25-37.5 6.25-43.75 12.5-43.75 12.5-50 37.5-50 37.5-43.75 43.75-43.75 43.75-37.5 31.25-37.5 31.25-43.75 18.75-43.75 18.75-37.5 12.5-37.5 12.5-18.75 18.75-18.75 18.75-12.5 31.25-12.5 31.25-18.75 43.75-18.75 43.75-12.5 37.5-12.5 37.5-6.25ZM62.5-6.25L50-6.25 50-50 87.5-50 87.5-43.75 93.75-43.75 93.75-25 81.25-25 81.25-18.75 87.5-18.75 87.5-12.5 93.75-12.5 93.75-6.25 75-6.25 75-12.5 68.75-12.5 68.75-18.75 62.5-18.75 62.5-6.25ZM62.5-43.75L62.5-25 75-25 75-31.25 81.25-31.25 81.25-43.75 62.5-43.75ZM112.5-6.25L100-6.25 100-37.5 106.25-37.5 106.25-43.75 112.5-43.75 112.5-50 131.25-50 131.25-43.75 137.5-43.75 137.5-37.5 143.75-37.5 143.75-6.25 131.25-6.25 131.25-18.75 112.5-18.75 112.5-6.25ZM112.5-37.5L112.5-25 131.25-25 131.25-37.5 125-37.5 125-43.75 118.75-43.75 118.75-37.5 112.5-37.5ZM187.49-6.25L156.24-6.25 156.24-12.5 149.99-12.5 149.99-18.75 162.49-18.75 162.49-12.5 181.24-12.5 181.24-25 156.24-25 156.24-31.25 149.99-31.25 149.99-43.75 156.24-43.75 156.24-50 187.49-50 187.49-43.75 193.74-43.75 193.74-37.5 181.24-37.5 181.24-43.75 162.49-43.75 162.49-31.25 187.49-31.25 187.49-25 193.74-25 193.74-12.5 187.49-12.5 187.49-6.25ZM212.49-6.25L199.99-6.25 199.99-50 212.49-50 212.49-31.25 231.24-31.25 231.24-50 243.74-50 243.74-6.25 231.24-6.25 231.24-25 212.49-25 212.49-6.25ZM337.49-6.25L299.99-6.25 299.99-50 337.49-50 337.49-43.75 343.74-43.75 343.74-31.25 337.49-31.25 337.49-25 343.74-25 343.74-12.5 337.49-12.5 337.49-6.25ZM312.49-43.75L312.49-31.25 331.24-31.25 331.24-43.75 312.49-43.75ZM312.49-25L312.49-12.5 331.24-12.5 331.24-25 312.49-25ZM387.48-6.25L356.23-6.25 356.23-12.5 349.98-12.5 349.98-43.75 356.23-43.75 356.23-50 387.48-50 387.48-43.75 393.73-43.75 393.73-12.5 387.48-12.5 387.48-6.25ZM362.48-43.75L362.48-12.5 381.23-12.5 381.23-43.75 362.48-43.75ZM431.23-6.25L418.73-6.25 418.73-25 412.48-25 412.48-31.25 406.23-31.25 406.23-50 418.73-50 418.73-31.25 431.23-31.25 431.23-50 443.73-50 443.73-31.25 437.48-31.25 437.48-25 431.23-25 431.23-6.25Z" opacity="1" transform="matrix(1,0,0,1,0,0)" fill="#ffffff" class="undefined-text-0" data-fill-palette-color="primary" id="text-0"></path></svg></g></svg></g></svg></g></svg></g></svg></g><defs></defs></svg><rect width="395.52" height="44.5656338028169" fill="none" stroke="none" visibility="hidden"></rect></g></svg></g></svg>