<svg xmlns="http://www.w3.org/2000/svg" version="1.1" xmlns:xlink="http://www.w3.org/1999/xlink" xmlns:svgjs="http://svgjs.dev/svgjs" width="128" height="128" viewBox="0 0 128 128"><g transform="matrix(0.8046875,0,0,0.8046875,12.333870967741937,40.294688585069444)"><svg viewBox="0 0 155 72" data-background-color="#ffffff" preserveAspectRatio="xMidYMid meet" height="59" width="128" xmlns="http://www.w3.org/2000/svg" xmlns:xlink="http://www.w3.org/1999/xlink"><g id="tight-bounds" transform="matrix(1,0,0,1,0.25,-0.04999999999999716)"><svg viewBox="0 0 154.5 72.1" height="72.1" width="154.5"><g><svg viewBox="0 0 154.5 72.1" height="72.1" width="154.5"><g><svg viewBox="0 0 154.5 72.1" height="72.1" width="154.5"><g id="textblocktransform"><svg viewBox="0 0 154.5 72.1" height="72.1" width="154.5" id="textblock"><g><svg viewBox="0 0 154.5 72.1" height="72.1" width="154.5"><g transform="matrix(1,0,0,1,0,0)"><svg width="154.5" viewBox="0 -50 93.75 43.75" height="72.1" data-palette-color="#ffffff"><path d="M37.5-6.25L12.5-6.25 12.5-12.5 6.25-12.5 6.25-18.75 0-18.75 0-37.5 6.25-37.5 6.25-43.75 12.5-43.75 12.5-50 37.5-50 37.5-43.75 43.75-43.75 43.75-37.5 31.25-37.5 31.25-43.75 18.75-43.75 18.75-37.5 12.5-37.5 12.5-18.75 18.75-18.75 18.75-12.5 31.25-12.5 31.25-18.75 43.75-18.75 43.75-12.5 37.5-12.5 37.5-6.25ZM87.5-6.25L50-6.25 50-50 87.5-50 87.5-43.75 93.75-43.75 93.75-31.25 87.5-31.25 87.5-25 93.75-25 93.75-12.5 87.5-12.5 87.5-6.25ZM62.5-43.75L62.5-31.25 81.25-31.25 81.25-43.75 62.5-43.75ZM62.5-25L62.5-12.5 81.25-12.5 81.25-25 62.5-25Z" opacity="1" transform="matrix(1,0,0,1,0,0)" fill="#ffffff" class="undefined-text-0" data-fill-palette-color="primary" id="text-0"></path></svg></g></svg></g></svg></g></svg></g></svg></g><defs></defs></svg><rect width="154.5" height="72.1" fill="none" stroke="none" visibility="hidden"></rect></g></svg></g></svg>